<svg width="200" height="200" viewBox="0 0 200 200" fill="none" xmlns="http://www.w3.org/2000/svg">
<g clip-path="url(#clip0_1_8)">
<path d="M111.417 84.8907V64.7083C111.417 56.2656 114.771 48.1687 120.74 42.1988C126.71 36.2289 134.807 32.875 143.25 32.875H155.188C156.243 32.875 157.255 33.2942 158.001 34.0405C158.747 34.7867 159.167 35.7988 159.167 36.8542V48.7917C159.167 57.2344 155.813 65.3313 149.843 71.3012C143.873 77.2711 135.776 80.625 127.333 80.625C118.891 80.625 110.794 83.9789 104.824 89.9488C98.8539 95.9187 95.5 104.016 95.5 112.458C95.5 128.375 103.458 136.333 103.458 152.25C103.458 160.86 100.666 169.237 95.5 176.125" stroke="black" stroke-width="10" stroke-linecap="round" stroke-linejoin="round"/>
<path d="M31.8333 80.625C37.7452 76.1911 44.7749 73.4911 52.1348 72.8274C59.4947 72.1638 66.8941 73.5628 73.5037 76.8676C80.1133 80.1724 85.6721 85.2525 89.5571 91.5386C93.4422 97.8247 95.5 105.069 95.5 112.458C89.5882 116.892 82.5584 119.592 75.1985 120.256C67.8386 120.92 60.4393 119.521 53.8296 116.216C47.22 112.911 41.6612 107.831 37.7762 101.545C33.8911 95.2586 31.8333 88.0148 31.8333 80.625Z" stroke="black" stroke-width="10" stroke-linecap="round" stroke-linejoin="round"/>
<path d="M39.7917 176.125H151.208" stroke="black" stroke-width="10" stroke-linecap="round" stroke-linejoin="round"/>
<g clip-path="url(#clip1_1_8)">
<path d="M157.954 7.81252C164.223 7.50254 170.378 9.51545 175.241 13.4664C180.105 17.4173 183.336 23.0291 184.317 29.2288" stroke="black" stroke-width="5" stroke-linecap="round" stroke-linejoin="round"/>
<path d="M157.567 16.3695C162 15.9466 166.416 17.2797 169.867 20.0826C173.317 22.8855 175.526 26.9347 176.021 31.3609" stroke="black" stroke-width="5" stroke-linecap="round" stroke-linejoin="round"/>
<path d="M158.343 24.8412C160.559 24.6298 162.767 25.2964 164.493 26.6978C166.218 28.0993 167.323 30.1238 167.57 32.3369" stroke="black" stroke-width="5" stroke-linecap="round" stroke-linejoin="round"/>
</g>
</g>
<defs>
<clipPath id="clip0_1_8">
<rect width="200" height="200" fill="white"/>
</clipPath>
<clipPath id="clip1_1_8">
<rect width="40.7591" height="40.9156" fill="white" transform="translate(164.798 -6) rotate(39.0888)"/>
</clipPath>
</defs>
</svg>
