<svg width="200" height="200" viewBox="0 0 200 200" fill="none" xmlns="http://www.w3.org/2000/svg">
<path d="M108.75 89.104V77.375C108.75 72.4685 110.699 67.7629 114.169 64.2935C117.638 60.8241 122.343 58.875 127.25 58.875H134.188C134.801 58.875 135.389 59.1186 135.823 59.5523C136.256 59.986 136.5 60.5742 136.5 61.1875V68.125C136.5 73.0315 134.551 77.7371 131.081 81.2065C127.612 84.6759 122.907 86.625 118 86.625C113.093 86.625 108.388 88.5741 104.919 92.0435C101.449 95.5129 99.5 100.218 99.5 105.125C99.5 114.375 104.125 119 104.125 128.25C104.125 133.254 102.502 138.122 99.5 142.125" stroke="black" stroke-width="6" stroke-linecap="round" stroke-linejoin="round"/>
<path d="M62.5 86.625C65.9357 84.0483 70.021 82.4791 74.2982 82.0935C78.5755 81.7078 82.8756 82.5208 86.7168 84.4414C90.558 86.362 93.7885 89.3143 96.0463 92.9675C98.3041 96.6207 99.5 100.83 99.5 105.125C96.0643 107.702 91.979 109.271 87.7018 109.657C83.4245 110.042 79.1244 109.229 75.2832 107.309C71.442 105.388 68.2115 102.436 65.9537 98.7825C63.6959 95.1293 62.5 90.9196 62.5 86.625Z" stroke="black" stroke-width="6" stroke-linecap="round" stroke-linejoin="round"/>
<path d="M67.125 142.125H131.875" stroke="black" stroke-width="6" stroke-linecap="round" stroke-linejoin="round"/>
<g clip-path="url(#clip0_1_8)">
<path d="M136.118 44.102C139.795 43.9202 143.405 45.1009 146.258 47.4184C149.111 49.736 151.006 53.0277 151.582 56.6643" stroke="black" stroke-width="3" stroke-linecap="round" stroke-linejoin="round"/>
<path d="M135.891 49.1213C138.491 48.8733 141.082 49.6553 143.105 51.2994C145.129 52.9435 146.425 55.3186 146.715 57.9149" stroke="black" stroke-width="3" stroke-linecap="round" stroke-linejoin="round"/>
<path d="M136.346 54.0906C137.646 53.9666 138.941 54.3576 139.953 55.1797C140.965 56.0017 141.613 57.1893 141.758 58.4874" stroke="black" stroke-width="3" stroke-linecap="round" stroke-linejoin="round"/>
</g>
<defs>
<clipPath id="clip0_1_8">
<rect width="23.9082" height="24" fill="white" transform="translate(140.133 36) rotate(39.0888)"/>
</clipPath>
</defs>
</svg>
